Patient4_TMGait_0pt5_01_left_19_EMG.mot
version=1
nRows=30
nColumns=33
inDegrees=no
endheader
time	1LAddLong	2LGlutMax	3LGlutMed	4LIliopsoas	5LSemiMemb	6LBicFemLong	7LRecFem	8LVastMed	9LVastLat	10LGasMed	11LTibAnt	12lTibPost	13LPeroneusLong	14LSol	15LExtDigLong	16LFlexDigLong	17RAddLong	18RGlutMax	19RGlutMed	20RIliopsoas	21RSemiMemb	22RBicFemLong	23RRecFem	24RVastMed	25RVastLat	26RGasMed	27RTibAnt	28RTibPost	29RPeroneusLong	30RSol	31RExtDigLong	32RFlexDigLong
26.808	0.00885	0.10757	-0.17716	0.012665	0.040283	-0.015564	-0.011139	0.001373	0.16388	-0.03418	0.028839	-0.015259	-0.02594	-0.032501	-0.13428	0.002289	-0.004883	-0.10742	-0.040894	-0.009918	0.012054	0.072479	-0.090942	0.11154	-0.15045	0.010376	-0.15732	0	-0.14175	-0.16937	-0.003967	-0.014343
26.809	0.003357	0.11017	-0.14008	-0.009613	0.005951	0.000916	-0.005493	-0.002136	0.15228	-0.035858	0.014954	-0.003662	0.036621	-0.068359	-0.11032	0.005798	0.002441	-0.04364	-0.39887	0.066833	0.00946	0.041351	0.038757	0.046234	-0.019989	0.005341	-0.22339	0.001678	-0.3894	-0.11719	-0.001373	-0.003815
26.81	0.008545	0.097656	-0.005493	-0.013428	-0.015717	-0.002594	-0.01236	-0.00351	0.14465	-0.064392	0.015564	-0.006104	0.063782	-0.066376	-0.047302	0.01236	0.008545	-0.065765	-0.01297	0.14496	0.000763	0.0383	0.16342	-0.095367	-0.066986	0.005188	-0.93704	-0.001373	-0.10712	-0.09613	-0.002899	-0.005493
26.811	0.001221	0.095978	-0.045013	0.02655	0.010834	-0.018158	-0.022736	0.001068	0.14862	-0.06012	0.014191	-0.005646	0.072174	-0.094604	-0.001221	0.01297	0.007019	-0.077362	0.16144	0.086517	-0.00885	0.018311	0.15121	-0.18982	-0.029449	0.002136	-0.82214	-0.004425	-0.29495	-0.090942	-0.000916	-0.014954
26.812	0.012207	0.089264	-0.023193	0.033264	0.045166	0.002899	-0.00885	-0.000153	0.13886	-0.029449	0.008698	-0.000916	0.094452	-0.04303	0.010986	0.000305	0.00412	0.024567	0.53375	-0.12177	-0.001831	0.030212	0.045166	-0.11932	0.015717	-0.006409	-0.27954	-0.002594	-0.42053	-0.037842	-0.001221	-0.011597
26.813	0.015869	0.10483	0.036011	0.011597	0.038605	0.002289	-0.016022	-0.001831	0.14557	-0.007019	0.011292	-0.005188	0.085907	-0.033569	0.10834	0.00351	0.001068	-0.026093	0.52185	-0.090179	-0.001373	0.042877	-0.060883	-0.15427	0.022125	-0.002289	-0.21225	-0.002289	0.05188	-0.076599	-0.006409	-0.005951
26.814	0.014191	0.098114	0.018005	0.012054	0.036621	-0.003815	-0.018005	0.001221	0.14175	0.002136	0.014191	-0.005951	0.095673	-0.03479	0.050964	0.000763	0.001373	-0.086517	-0.041046	0.037689	0.002899	0.024567	-0.053558	-0.057831	0.087738	0.004883	-0.22644	-0.002136	0.27023	-0.041809	-0.002289	-0.00061
26.815	0.019226	0.10193	-0.03952	0.016022	0.031433	-0.006714	-0.008392	0.00061	0.13977	0.000916	0.02655	-0.007477	0.076599	-0.032654	-0.011749	0.003967	0.006409	-0.089874	-0.37476	0.11017	-0.004272	0.032196	0.059509	-0.004883	0.1535	-0.019073	-0.11322	0.000458	-0.049744	0.22003	-0.000916	0.001526
26.816	0.013733	0.075684	-0.045929	-0.000153	0.027313	-0.032196	0.007019	-0.002747	0.1329	-0.005646	0.016632	-0.006561	0.063171	-0.026398	-0.027008	0.006866	0.009003	-0.088806	-0.3302	0.14526	-0.007935	0.065155	0.065308	0.008392	0.055695	-0.035095	-0.073547	-0.002289	0.011139	0.2124	-0.003815	-0.003357
26.817	0.000458	0.10407	-0.071564	0.010529	0.020142	-0.01358	-0.007172	0.002899	0.10681	-0.014954	0.006256	-0.012054	0.063019	-0.037231	-0.015869	0.004272	0.005798	-0.025635	-0.31982	0.044403	0.00061	0.065918	0.089874	0.10651	0.006104	-0.037231	-0.034332	0.006714	0.18097	0.13321	0.000305	-0.009308
26.818	-0.002899	0.079803	-0.059814	0.018005	0.016785	0.008087	0.000153	0.004883	0.11337	-0.015564	0.021973	-0.007172	0.046234	-0.032349	-0.010376	0.000916	0.024109	-0.04837	0.048981	0.029297	-0.020905	0.12054	0.082703	-0.02655	-0.12421	-0.03891	0.052032	-0.001984	0.27512	0.072632	-0.00061	-0.01358
26.819	0.012207	0.1004	-0.046692	0.023041	0.012054	0.028534	0.002289	0.004425	0.10605	-0.018921	0.015411	-0.007172	0.065002	-0.06485	0.011292	0.013123	0.024414	-0.018311	0.15991	0.056305	-0.063171	0.18738	-0.068054	-0.026093	-0.18295	-0.032196	0.03067	-0.001678	0.093079	0.054016	-0.003052	-0.013123
26.82	0.010986	0.097656	-0.049591	0.014038	0.003815	0.048981	0.004425	-0.001068	0.1091	-0.045776	0.015564	-0.011292	0.053406	-0.083923	0.013733	0.001068	-0.013885	0.017242	0.29968	0.036163	0.056458	0.14908	0.005035	0.20996	-0.12604	0.008698	-0.092926	-0.000458	-0.78812	0.058136	-0.009155	-0.005798
26.821	0.011902	0.10498	-0.059357	-0.001831	0.00412	0.033264	-0.007019	-0.000763	0.09903	-0.042877	0.016632	-0.007782	0.065155	-0.092621	0.016022	-0.00061	0.002594	-0.032654	-0.11002	0.034943	-0.021057	0.11231	0.082703	0.12726	-0.08606	0.040131	-0.09903	-0.000305	-1.6026	0.076599	-0.003357	-0.015564
26.822	0.006561	0.14679	-0.018005	0.002136	-0.016785	0.04364	-0.007019	0	0.09552	-0.04776	0.015717	-0.007172	0.079651	-0.097809	0.018311	0.002747	0.01297	0.007324	-0.46326	0.012665	-0.16769	0.058594	0.094299	-0.010834	-0.024719	0.034027	-0.10391	-0.000153	0.21652	0.057831	-0.002136	-0.012817
26.823	0.002747	0.10941	-0.048676	0.022888	-0.012207	0.024567	-0.023804	-0.007019	0.10574	-0.036316	0.028992	-0.00885	0.064697	-0.029297	0.011597	0.010529	0.009613	-0.013275	-0.39581	-0.005951	-0.20996	0.13443	-0.030975	-0.00061	0.14633	0.01709	0.1358	-0.000763	0.5368	0.047913	-0.002441	-0.012512
26.824	0.007019	0.10391	-0.076752	0.011292	-0.00946	-0.000916	0.002747	0.004883	0.10544	-0.041656	0.018158	-0.006256	0.066223	0.041962	0.008392	-0.008087	-0.041351	0.000458	-0.04776	-0.021515	-0.058289	0.23224	-0.011444	0.20554	0.2063	0.038605	0.2298	-0.000153	-0.26916	-0.004883	-0.001068	-0.020599
26.825	0.014038	0.10727	-0.070801	0.006409	-0.026855	0.008545	-0.005493	0.002594	0.09201	-0.036621	0.011292	-0.007629	0.033875	0.036163	0.014496	0.019379	-0.023804	0.001221	-0.02121	-0.013885	0.070801	0.19882	0.080872	0.17578	0.096741	0.032196	0.16403	-0.007935	-0.54123	-0.053406	-0.00351	-0.019531
26.826	0.00061	0.11032	-0.073547	0.006714	-0.020905	0.001831	-0.014191	0.004578	0.10269	-0.01709	0.00946	-0.010223	0.054626	-0.009766	0.015411	0.033264	-0.024261	-0.032501	0.27557	-0.006409	0.21576	0.093231	0.081482	0.041809	0.032196	0.018311	-0.007629	-0.003967	1.1438	-0.070343	-0.006256	-0.01297
26.827	0.015411	0.10391	-0.067902	0.015717	0.007477	0.021515	-0.009308	-0.001678	0.092621	-0.028076	0.02182	-0.007477	0.025177	-0.015106	0.016022	0.008087	-0.014648	-0.054016	0.13718	-0.022736	0.27618	0.034485	0.07309	-0.032196	0.025482	0.006409	0.081024	-0.004425	0.68878	-0.065765	-0.002289	-0.019379
26.828	0.015259	0.14633	-0.050507	0.013885	0.039825	0.040894	-0.013275	-0.002289	0.08255	-0.027771	0.02182	-0.002289	0.025482	-0.016785	0.009918	0.00473	-0.00061	-0.046692	0.001984	-0.005341	0.27176	0.027618	0.009003	0.030975	0.048065	-0.014648	0.1236	-0.00351	0.27039	-0.040436	-0.006104	-0.018463
26.829	0.010681	0.121	-0.054932	-0.005798	0.066071	0.063324	-0.015106	-0.002747	0.080261	-0.0383	0.012512	0.006866	0.050049	-0.034943	0.011902	0.006714	-0.027008	-0.005951	-0.12131	0.053101	0.19226	0.075836	-0.11505	0.11261	0.074005	-0.046997	0.1532	-0.002899	0.24185	0.030518	-0.003662	-0.012512
26.83	0.008545	0.11551	-0.057526	0.018463	0.014343	0.069275	-0.004425	-0.000153	0.067902	-0.042267	0.023804	-0.00351	0.062408	-0.024872	0.011139	0.001678	-0.034485	-0.001221	-0.081482	-0.005188	-0.027466	0.11307	0.026245	0.12604	0.036011	-0.018005	0.13947	0.001678	0.24933	0.064545	-0.001678	-0.014343
26.831	-0.000305	0.14664	-0.041046	0.017548	-0.061646	0.071259	0.006714	-0.002289	0.076752	-0.039978	0.018005	-0.005035	0.04837	-0.037384	0.005341	-0.005341	-0.023804	-0.052032	-0.019379	-0.060272	0.011597	-0.012207	0.1059	0.012512	-0.048981	0.011597	0.1149	-0.002289	0.85403	0.05661	0	-0.00473
26.832	0.001984	0.1329	-0.040131	0.006256	-0.1329	0.043793	-0.008698	-0.005493	0.062561	-0.043182	0.02182	0.006561	0.043182	-0.022736	0.005646	-0.002899	-0.000153	0.011139	0.082245	-0.028839	0.085602	-0.12985	0.25177	-0.19684	-0.1947	-0.018005	0.11978	-0.007477	1.0841	-0.028687	0.000305	-0.008392
26.833	0.009155	0.1181	-0.079193	0.012512	-0.066376	0.001526	-0.023651	0.002594	0.056458	-0.038757	0.015717	-0.00351	0.04303	-0.03479	0.004425	-0.000153	0.003204	-0.013733	-0.30853	-0.026093	0.051727	-0.090485	0.30411	-0.24033	-0.24139	-0.047302	0.041809	-0.015869	1.0657	-0.10086	-0.003052	-0.005035
26.834	0.014954	0.1329	-0.084076	-0.005188	0.12344	-0.023651	-0.016479	-0.002441	0.058899	-0.047455	0.018921	-0.008392	0.054626	-0.038452	0.008392	-0.000153	0.007935	0.012817	-0.32806	0.065002	0.014343	-0.033722	0.37811	-0.11047	-0.32867	-0.043335	0.068665	0.003052	0.074615	-0.19394	-0.005646	-0.003052
26.835	0.019684	0.14862	-0.081635	0.0354	0.11627	0.02655	-0.027161	0.004883	0.033264	-0.031891	0.008087	-0.016632	0.057983	-0.048065	0.009155	0.003052	0.014496	0.040436	-0.081329	0.09964	0.002136	-0.010681	0.37018	-0.079193	-0.36301	-0.015564	0.13168	0.015411	-1.4377	-0.19836	-0.00351	-0.006409
26.836	0.003815	0.12314	-0.087585	0.020142	0.039978	0.05188	-0.033112	-0.005341	0.040283	-0.014954	0.020905	-0.013428	0.046539	-0.024109	0.00946	0.000763	0.014038	0.005341	-0.19608	0.090027	-0.010071	-0.034332	0.073547	0.003357	-0.25635	-0.010223	0.14496	0.002594	-1.9719	-0.036926	-0.003052	-0.012512
26.837	0.00473	0.12039	-0.087433	0.020905	0.02182	0.041199	-0.024567	-0.002594	0.036621	-0.019989	0.020142	-0.007172	0.037231	-0.024414	0.013733	0.001526	-0.006409	-0.014496	-0.20508	0.058289	-0.001678	-0.021515	-0.40924	0.20248	0.067444	0.028076	0.14679	-0.008698	-1.5695	-0.005646	-0.000305	-0.015106
